<svg xmlns="http://www.w3.org/2000/svg" viewBox="0 0 165 105" role="img" aria-label="Apple Pay">
  <rect width="165" height="105" rx="8" fill="#000"/>
  <path fill="#fff" d="M38.2 42.5c-.7-3.6 1.8-5.4 1.9-5.5-1-1.5-2.6-1.7-3.2-1.7-1.4-.1-2.7.8-3.4.8-.7 0-1.8-.8-3-.8-1.5 0-3 .9-3.8 2.3-1.6 2.8-.4 6.9 1.2 9.2.8 1.1 1.7 2.4 2.9 2.3 1.2 0 1.6-.8 3-.8 1.4 0 1.8.8 3 .8 1.2 0 2.1-1.1 2.9-2.2.9-1.3 1.3-2.6 1.3-2.7-.1 0-2.5-1-2.5-3.9zm-2.3-6.8c.6-.8 1.1-1.9.9-3-.9.1-2 .6-2.6 1.4-.6.7-1.1 1.9-.9 3 1 .1 2-.5 2.6-1.4z"/>
  <path fill="#fff" d="M52.5 35.8h-8.8v33.4h8.8c4.6 0 7.9-2.4 7.9-7.2v-19c0-4.8-3.3-7.2-7.9-7.2zm5.2 26.4c0 2.8-1.5 4.2-4.4 4.2h-2.5V41.2h2.5c2.9 0 4.4 1.4 4.4 4.2v16.8zM72.8 35.8H64v33.4h8.8c4.6 0 7.9-2.4 7.9-7.2v-19c0-4.8-3.3-7.2-7.9-7.2zm5.2 26.4c0 2.8-1.5 4.2-4.4 4.2h-2.5V41.2h2.5c2.9 0 4.4 1.4 4.4 4.2v16.8zM95.8 52.5c0-9.7 5.6-16.7 14.1-16.7 8.5 0 14.1 7 14.1 16.7s-5.6 16.7-14.1 16.7c-8.5 0-14.1-7-14.1-16.7zm8.8 0c0 5.5 2.3 9.2 5.3 9.2s5.3-3.7 5.3-9.2-2.3-9.2-5.3-9.2-5.3 3.7-5.3 9.2z"/>
  <text x="82" y="78" fill="#fff" font-family="Arial, sans-serif" font-size="14" font-weight="600" text-anchor="middle">Pay</text>
</svg>
