<svg xmlns="http://www.w3.org/2000/svg" viewBox="0 0 165 105" role="img" aria-label="Google Pay">
  <rect width="165" height="105" rx="8" fill="#fff" stroke="#dadce0" stroke-width="1"/>
  <path fill="#4285F4" d="M28 52.5c0-1.6.3-3.1.7-4.5H18v8.5h5.6c-.2 1.3-1 3.2-2.8 4.5l-.1.7 4.1 3.2.3.1c2.6-2.4 4.1-5.9 4.1-10.5z"/>
  <path fill="#34A853" d="M46.2 57.8l-.4-.3c-1.2-.9-2.1-2.1-2.6-3.4H28v3.3c1.8 3.6 5.5 6 9.8 6 3.1 0 5.7-1 7.6-2.7l-.2-.9z"/>
  <path fill="#FBBC05" d="M28 47.8c-.5 1.3-.8 2.7-.8 4.2s.3 2.9.8 4.2l6.8-5.3c-.4-1.1-.6-2.3-.6-3.6 0-1.3.2-2.5.6-3.5L28 47.8z"/>
  <path fill="#EA4335" d="M37.8 41.2c2.1 0 4 .7 5.5 2.1l4.1-4.1C43.5 36.5 40.9 35.5 37.8 35.5c-4.3 0-8 2.4-9.8 6l6.8 5.3c1.3-3.9 4.4-5.6 8-5.6z"/>
  <text x="82" y="58" font-family="Arial, sans-serif" font-size="18" font-weight="500">
    <tspan fill="#5F6368">G</tspan><tspan fill="#5F6368">o</tspan><tspan fill="#5F6368">o</tspan><tspan fill="#5F6368">g</tspan><tspan fill="#5F6368">l</tspan><tspan fill="#5F6368">e</tspan>
    <tspan fill="#202124" dx="6">Pay</tspan>
  </text>
</svg>
